<svg width="20" height="18" viewBox="0 0 20 18" fill="none" xmlns="http://www.w3.org/2000/svg">
<path fill-rule="evenodd" clip-rule="evenodd" d="M10 4.875C10.4973 4.875 10.9742 4.69721 11.3258 4.38074C11.6775 4.06427 11.875 3.63505 11.875 3.1875C11.875 2.73995 11.6775 2.31072 11.3258 1.99426C10.9742 1.67779 10.4973 1.5 10 1.5C9.50273 1.5 9.02582 1.67779 8.67419 1.99426C8.32256 2.31072 8.12502 2.73995 8.12502 3.1875C8.12502 3.63505 8.32256 4.06427 8.67419 4.38074C9.02582 4.69721 9.50273 4.875 10 4.875ZM15.8 5.79C15.8619 5.98096 15.837 6.18622 15.7307 6.36062C15.6244 6.53503 15.4455 6.6643 15.2333 6.72C14.2433 6.9795 13.3492 7.17525 12.5 7.30538V15.75C12.5003 15.9432 12.4177 16.129 12.2695 16.2687C12.1213 16.4085 11.9189 16.4913 11.7044 16.5001C11.49 16.5088 11.2801 16.4428 11.1184 16.3157C10.9568 16.1886 10.8559 16.0103 10.8367 15.8179L10.42 11.6929C10.4178 11.6703 10.4167 11.6477 10.4167 11.625H9.58335C9.58338 11.6477 9.58227 11.6703 9.58002 11.6929L9.16335 15.8179C9.14417 16.0103 9.04324 16.1886 8.88159 16.3157C8.71994 16.4428 8.51003 16.5088 8.2956 16.5001C8.08118 16.4913 7.87877 16.4085 7.73056 16.2687C7.58235 16.129 7.49977 15.9432 7.50002 15.75V7.2915C6.65293 7.16025 5.7621 6.96862 4.7771 6.72262C4.67063 6.69711 4.57085 6.65285 4.48351 6.5924C4.39618 6.53195 4.32303 6.45651 4.2683 6.37045C4.21357 6.2844 4.17834 6.18942 4.16466 6.09103C4.15097 5.99264 4.1591 5.89279 4.18858 5.79725C4.21805 5.7017 4.26828 5.61237 4.33637 5.53441C4.40445 5.45645 4.48904 5.39141 4.58523 5.34307C4.68142 5.29472 4.78731 5.26402 4.89677 5.25275C5.00623 5.24147 5.11709 5.24984 5.22293 5.27737C7.14293 5.75662 8.58543 5.99437 10.0038 6C11.4188 6.00562 12.8579 5.78062 14.7667 5.28C14.9789 5.2243 15.2069 5.24675 15.4007 5.34239C15.5945 5.43803 15.7381 5.59904 15.8 5.79Z" fill="currentColor"/>
</svg>
