<svg width="15" height="15" viewBox="0 0 15 15" fill="none" xmlns="http://www.w3.org/2000/svg">
<path d="M7.5 1.875C6.52411 1.87467 5.56492 2.12824 4.71669 2.6108C3.86845 3.09335 3.16035 3.78828 2.66196 4.62731C2.16358 5.46634 1.89205 6.4206 1.87406 7.39633C1.85608 8.37205 2.09225 9.33567 2.55938 10.1925L1.89375 12.5269C1.87033 12.6088 1.86971 12.6957 1.89195 12.7779C1.91419 12.8602 1.95845 12.9349 2.01997 12.9939C2.08149 13.0529 2.15794 13.0941 2.2411 13.1129C2.32425 13.1317 2.41095 13.1274 2.49188 13.1006L4.68375 12.3703C5.43081 12.802 6.26716 13.0561 7.12811 13.1128C7.98906 13.1696 8.85152 13.0275 9.64879 12.6976C10.446 12.3677 11.1567 11.8589 11.7259 11.2104C12.295 10.5619 12.7073 9.79115 12.9309 8.95781C13.1545 8.12447 13.1835 7.25086 13.0154 6.40456C12.8474 5.55827 12.4869 4.76197 11.9619 4.07726C11.4369 3.39256 10.7614 2.83782 9.98771 2.45594C9.21401 2.07406 8.36282 1.87529 7.5 1.875ZM5.625 6.5625C5.625 6.43818 5.67439 6.31895 5.7623 6.23104C5.8502 6.14314 5.96943 6.09375 6.09375 6.09375H8.90625C9.03057 6.09375 9.1498 6.14314 9.23771 6.23104C9.32562 6.31895 9.375 6.43818 9.375 6.5625C9.375 6.68682 9.32562 6.80605 9.23771 6.89396C9.1498 6.98186 9.03057 7.03125 8.90625 7.03125H6.09375C5.96943 7.03125 5.8502 6.98186 5.7623 6.89396C5.67439 6.80605 5.625 6.68682 5.625 6.5625ZM6.09375 7.96875H7.96875C8.09307 7.96875 8.2123 8.01814 8.30021 8.10604C8.38812 8.19395 8.4375 8.31318 8.4375 8.4375C8.4375 8.56182 8.38812 8.68105 8.30021 8.76896C8.2123 8.85687 8.09307 8.90625 7.96875 8.90625H6.09375C5.96943 8.90625 5.8502 8.85687 5.7623 8.76896C5.67439 8.68105 5.625 8.56182 5.625 8.4375C5.625 8.31318 5.67439 8.19395 5.7623 8.10604C5.8502 8.01814 5.96943 7.96875 6.09375 7.96875Z" fill="currentColor"/>
</svg>
