<svg width="19" height="26" viewBox="0 0 19 26" fill="none" xmlns="http://www.w3.org/2000/svg">
<g filter="url(#filter0_d_622_258)">
<path d="M9.49998 4.75016V3.9585L8.0156 5.44287C8.00241 5.45607 7.89685 5.48905 7.69894 5.54183C7.56699 5.54183 7.46487 5.48562 7.39256 5.3732C7.32026 5.26079 7.31683 5.14547 7.38227 5.02725L7.91665 3.9585V3.16683C7.69234 3.16683 7.50445 3.09083 7.35298 2.93883C7.20151 2.78683 7.12551 2.59894 7.12498 2.37516C7.12498 2.15086 7.20098 1.96297 7.35298 1.8115C7.50498 1.66002 7.69287 1.58402 7.91665 1.5835H11.875C12.0993 1.5835 12.2874 1.6595 12.4394 1.8115C12.5914 1.9635 12.6672 2.15139 12.6666 2.37516V2.9887C12.6666 3.05468 12.66 3.11088 12.6469 3.15733C12.6337 3.20377 12.6139 3.25972 12.5875 3.32516L11.875 4.75016H9.49998ZM7.91665 17.4168C7.48123 17.4168 7.10862 17.2619 6.79881 16.9521C6.48901 16.6423 6.33384 16.2694 6.33331 15.8335V11.9345C6.33331 11.8026 6.34651 11.6741 6.3729 11.549C6.39929 11.4239 6.44547 11.3017 6.51144 11.1825L9.04477 6.39287C9.18991 6.12898 9.38466 5.92104 9.62902 5.76904C9.87338 5.61704 10.147 5.5413 10.45 5.54183H11.875C12.0993 5.54183 12.2874 5.61783 12.4394 5.76983C12.5914 5.92183 12.6672 6.10972 12.6666 6.3335V15.8335C12.6666 16.2689 12.5117 16.6418 12.2019 16.9521C11.8921 17.2625 11.5193 17.4174 11.0833 17.4168H7.91665Z" fill="currentColor"/>
</g>
<defs>
<filter id="filter0_d_622_258" x="-4" y="0" width="27" height="27" filterUnits="userSpaceOnUse" color-interpolation-filters="sRGB">
<feFlood flood-opacity="0" result="BackgroundImageFix"/>
<feColorMatrix in="SourceAlpha" type="matrix" values="0 0 0 0 0 0 0 0 0 0 0 0 0 0 0 0 0 0 127 0" result="hardAlpha"/>
<feOffset dy="4"/>
<feGaussianBlur stdDeviation="2"/>
<feComposite in2="hardAlpha" operator="out"/>
<feColorMatrix type="matrix" values="0 0 0 0 0 0 0 0 0 0 0 0 0 0 0 0 0 0 0.25 0"/>
<feBlend mode="normal" in2="BackgroundImageFix" result="effect1_dropShadow_622_258"/>
<feBlend mode="normal" in="SourceGraphic" in2="effect1_dropShadow_622_258" result="shape"/>
</filter>
</defs>
</svg>
