<svg width="17" height="17" viewBox="0 0 17 17" fill="none" xmlns="http://www.w3.org/2000/svg">
<path d="M4.95835 15.5834C4.56877 15.5834 4.23538 15.4448 3.95819 15.1676C3.68099 14.8904 3.54216 14.5568 3.54169 14.1667V8.50008C3.54169 7.49661 3.80448 6.59939 4.33006 5.80841C4.85565 5.01744 5.5373 4.42716 6.37502 4.03758V3.54175C6.37502 2.95147 6.58162 2.44973 6.99481 2.03654C7.40801 1.62335 7.90974 1.41675 8.50002 1.41675C9.0903 1.41675 9.59203 1.62335 10.0052 2.03654C10.4184 2.44973 10.625 2.95147 10.625 3.54175V4.03758C11.4632 4.42716 12.1451 5.01744 12.6707 5.80841C13.1963 6.59939 13.4588 7.49661 13.4584 8.50008V14.1667C13.4584 14.5563 13.3198 14.89 13.0426 15.1676C12.7654 15.4453 12.4317 15.5839 12.0417 15.5834H4.95835ZM10.625 11.3334C10.8257 11.3334 10.9941 11.2654 11.1301 11.1294C11.2661 10.9934 11.3338 10.8253 11.3334 10.6251V9.91675C11.3334 9.52716 11.1948 9.19378 10.9176 8.91658C10.6404 8.63939 10.3067 8.50055 9.91669 8.50008H6.37502C6.17433 8.50008 6.00621 8.56808 5.87069 8.70408C5.73516 8.84008 5.66716 9.00819 5.66669 9.20841C5.66669 9.40911 5.73469 9.57746 5.87069 9.71346C6.00669 9.84946 6.1748 9.91722 6.37502 9.91675H9.91669V10.6251C9.91669 10.8258 9.98469 10.9941 10.1207 11.1301C10.2567 11.2661 10.4248 11.3339 10.625 11.3334ZM7.79169 3.61258C7.92155 3.58897 8.0396 3.57126 8.14585 3.55946C8.2521 3.54765 8.37016 3.54175 8.50002 3.54175C8.62988 3.54175 8.74794 3.54765 8.85419 3.55946C8.96044 3.57126 9.07849 3.58897 9.20835 3.61258V3.54175C9.20835 3.34105 9.14035 3.17294 9.00435 3.03741C8.86835 2.90189 8.70024 2.83389 8.50002 2.83341C8.29933 2.83341 8.13121 2.90141 7.99569 3.03741C7.86016 3.17341 7.79216 3.34153 7.79169 3.54175V3.61258Z" fill="currentColor"/>
</svg>
