<svg width="19" height="14" viewBox="0 0 19 14" fill="none" xmlns="http://www.w3.org/2000/svg">
<path d="M13.3 12.1333V14H0V12.1333C0 12.1333 0 8.40002 6.65 8.40002C13.3 8.40002 13.3 12.1333 13.3 12.1333ZM9.975 3.2667C9.975 2.62062 9.77999 1.98905 9.41464 1.45185C9.04928 0.914649 8.52999 0.495954 7.92242 0.248709C7.31486 0.00146315 6.64631 -0.0632275 6.00132 0.0628171C5.35634 0.188862 4.76388 0.49998 4.29887 0.95683C3.83386 1.41368 3.51718 1.99574 3.38889 2.62941C3.26059 3.26308 3.32644 3.9199 3.5781 4.5168C3.82976 5.1137 4.25594 5.62388 4.80273 5.98283C5.34952 6.34177 5.99238 6.53336 6.65 6.53336C7.53184 6.53336 8.37757 6.18919 9.00113 5.57658C9.62469 4.96396 9.975 4.13308 9.975 3.2667ZM13.243 8.40002C13.827 8.84405 14.3049 9.40842 14.643 10.0534C14.9811 10.6984 15.1712 11.4084 15.2 12.1333V14H19V12.1333C19 12.1333 19 8.74535 13.243 8.40002ZM12.35 4.90736e-05C11.6961 -0.00352811 11.0566 0.18854 10.5165 0.550714C11.0936 1.34287 11.4039 2.29257 11.4039 3.2667C11.4039 4.24083 11.0936 5.19054 10.5165 5.98269C11.0566 6.34487 11.6961 6.53694 12.35 6.53336C13.2318 6.53336 14.0776 6.18919 14.7011 5.57658C15.3247 4.96396 15.675 4.13308 15.675 3.2667C15.675 2.40033 15.3247 1.56945 14.7011 0.95683C14.0776 0.344214 13.2318 4.90736e-05 12.35 4.90736e-05Z" fill="currentColor"/>
</svg>
