<svg width="15" height="15" viewBox="0 0 15 15" fill="none" xmlns="http://www.w3.org/2000/svg">
<path fill-rule="evenodd" clip-rule="evenodd" d="M13.75 7.5C13.75 10.9519 10.9519 13.75 7.50001 13.75C6.50001 13.75 5.55501 13.515 4.71751 13.0975C4.49627 12.9832 4.24089 12.9536 3.99938 13.0144L2.60813 13.3869C2.47043 13.4236 2.32548 13.4235 2.18784 13.3865C2.05019 13.3495 1.9247 13.277 1.82395 13.1762C1.72321 13.0754 1.65075 12.9498 1.61385 12.8122C1.57696 12.6745 1.57693 12.5296 1.61376 12.3919L1.98563 11.0006C2.04612 10.7592 2.01633 10.5041 1.90188 10.2831C1.47165 9.41854 1.24848 8.46571 1.25001 7.5C1.25001 4.04813 4.04813 1.25 7.50001 1.25C10.9519 1.25 13.75 4.04813 13.75 7.5ZM7.50001 4.53125C7.62433 4.53125 7.74356 4.58064 7.83146 4.66854C7.91937 4.75645 7.96876 4.87568 7.96876 5V5.00625C8.64938 5.17813 9.21876 5.71438 9.21876 6.45813C9.21876 6.58245 9.16937 6.70167 9.08146 6.78958C8.99356 6.87749 8.87433 6.92688 8.75001 6.92688C8.62569 6.92688 8.50646 6.87749 8.41855 6.78958C8.33064 6.70167 8.28126 6.58245 8.28126 6.45813C8.28126 6.21813 8.01501 5.88562 7.50001 5.88562C6.98501 5.88562 6.71876 6.21813 6.71876 6.45813C6.71876 6.69812 6.98501 7.03125 7.50001 7.03125C8.36563 7.03125 9.21876 7.63125 9.21876 8.54187C9.21876 9.28562 8.64938 9.8225 7.96876 9.99375V10C7.96876 10.1243 7.91937 10.2435 7.83146 10.3315C7.74356 10.4194 7.62433 10.4688 7.50001 10.4688C7.37569 10.4688 7.25646 10.4194 7.16855 10.3315C7.08064 10.2435 7.03126 10.1243 7.03126 10V9.99375C6.35063 9.8225 5.78126 9.28562 5.78126 8.54187C5.78126 8.41755 5.83064 8.29833 5.91855 8.21042C6.00646 8.12251 6.12569 8.07312 6.25001 8.07312C6.37433 8.07312 6.49356 8.12251 6.58146 8.21042C6.66937 8.29833 6.71876 8.41755 6.71876 8.54187C6.71876 8.78187 6.98501 9.11438 7.50001 9.11438C8.01501 9.11438 8.28126 8.78187 8.28126 8.54187C8.28126 8.30188 8.01501 7.96875 7.50001 7.96875C6.63438 7.96875 5.78126 7.36875 5.78126 6.45813C5.78126 5.71438 6.35063 5.17813 7.03126 5.00625V5C7.03126 4.87568 7.08064 4.75645 7.16855 4.66854C7.25646 4.58064 7.37569 4.53125 7.50001 4.53125Z" fill="currentColor"/>
</svg>
