<svg width="22" height="24" viewBox="0 0 22 24" fill="none" xmlns="http://www.w3.org/2000/svg">
<g filter="url(#filter0_d_622_241)">
<path d="M9.5 15C9.63261 15 9.75979 15.0527 9.85355 15.1464C9.94732 15.2402 10 15.3674 10 15.5C10 15.6326 9.94732 15.7598 9.85355 15.8536C9.75979 15.9473 9.63261 16 9.5 16C9.36739 16 9.24021 15.9473 9.14645 15.8536C9.05268 15.7598 9 15.6326 9 15.5C9 15.3674 9.05268 15.2402 9.14645 15.1464C9.24021 15.0527 9.36739 15 9.5 15ZM12.5 15C12.6326 15 12.7598 15.0527 12.8536 15.1464C12.9473 15.2402 13 15.3674 13 15.5C13 15.6326 12.9473 15.7598 12.8536 15.8536C12.7598 15.9473 12.6326 16 12.5 16C12.3674 16 12.2402 15.9473 12.1464 15.8536C12.0527 15.7598 12 15.6326 12 15.5C12 15.3674 12.0527 15.2402 12.1464 15.1464C12.2402 15.0527 12.3674 15 12.5 15ZM8 14C8.13261 14 8.25979 14.0527 8.35355 14.1464C8.44732 14.2402 8.5 14.3674 8.5 14.5C8.5 14.6326 8.44732 14.7598 8.35355 14.8536C8.25979 14.9473 8.13261 15 8 15C7.86739 15 7.74021 14.9473 7.64645 14.8536C7.55268 14.7598 7.5 14.6326 7.5 14.5C7.5 14.3674 7.55268 14.2402 7.64645 14.1464C7.74021 14.0527 7.86739 14 8 14ZM11 14C11.1326 14 11.2598 14.0527 11.3536 14.1464C11.4473 14.2402 11.5 14.3674 11.5 14.5C11.5 14.6326 11.4473 14.7598 11.3536 14.8536C11.2598 14.9473 11.1326 15 11 15C10.8674 15 10.7402 14.9473 10.6464 14.8536C10.5527 14.7598 10.5 14.6326 10.5 14.5C10.5 14.3674 10.5527 14.2402 10.6464 14.1464C10.7402 14.0527 10.8674 14 11 14ZM14 14C14.1326 14 14.2598 14.0527 14.3536 14.1464C14.4473 14.2402 14.5 14.3674 14.5 14.5C14.5 14.6326 14.4473 14.7598 14.3536 14.8536C14.2598 14.9473 14.1326 15 14 15C13.8674 15 13.7402 14.9473 13.6464 14.8536C13.5527 14.7598 13.5 14.6326 13.5 14.5C13.5 14.3674 13.5527 14.2402 13.6464 14.1464C13.7402 14.0527 13.8674 14 14 14ZM11 4C13.465 4 14.863 5.574 15.066 7.474H15.128C16.714 7.474 18 8.711 18 10.237C18 11.763 16.714 13 15.128 13H6.872C5.286 13 4 11.763 4 10.237C4 8.767 5.192 7.566 6.697 7.479L6.934 7.474C7.139 5.561 8.535 4 11 4Z" fill="currentColor"/>
</g>
<defs>
<filter id="filter0_d_622_241" x="-3" y="0" width="28" height="28" filterUnits="userSpaceOnUse" color-interpolation-filters="sRGB">
<feFlood flood-opacity="0" result="BackgroundImageFix"/>
<feColorMatrix in="SourceAlpha" type="matrix" values="0 0 0 0 0 0 0 0 0 0 0 0 0 0 0 0 0 0 127 0" result="hardAlpha"/>
<feOffset dy="4"/>
<feGaussianBlur stdDeviation="2"/>
<feComposite in2="hardAlpha" operator="out"/>
<feColorMatrix type="matrix" values="0 0 0 0 0 0 0 0 0 0 0 0 0 0 0 0 0 0 0.25 0"/>
<feBlend mode="normal" in2="BackgroundImageFix" result="effect1_dropShadow_622_241"/>
<feBlend mode="normal" in="SourceGraphic" in2="effect1_dropShadow_622_241" result="shape"/>
</filter>
</defs>
</svg>
