<svg width="17" height="17" viewBox="0 0 17 17" fill="none" xmlns="http://www.w3.org/2000/svg">
<path d="M3.3 14C2.9425 14 2.63657 13.8764 2.3822 13.6293C2.12783 13.3821 2.00043 13.0846 2 12.7368V5.78947C2 5.4421 2.1274 5.14484 2.3822 4.89768C2.637 4.65053 2.94293 4.52674 3.3 4.52632H5.9V3.26316C5.9 2.91579 6.0274 2.61853 6.2822 2.37137C6.537 2.12421 6.84293 2.00042 7.2 2H9.8C10.1575 2 10.4636 2.12379 10.7184 2.37137C10.9732 2.61895 11.1004 2.91621 11.1 3.26316V4.52632H13.7C14.0575 4.52632 14.3636 4.6501 14.6184 4.89768C14.8732 5.14526 15.0004 5.44253 15 5.78947V12.7368C15 13.0842 14.8728 13.3817 14.6184 13.6293C14.3641 13.8768 14.0579 14.0004 13.7 14H3.3ZM7.2 4.52632H9.8V3.26316H7.2V4.52632Z" fill="currentColor"/>
</svg>
